<svg xmlns="http://www.w3.org/2000/svg" viewBox="0 0 543.89 109.53"><defs><style>.cls-1{fill:#fff;}</style></defs><g id="Layer_2" data-name="Layer 2"><g id="Layer_1-2" data-name="Layer 1"><path class="cls-1" d="M506.87,104.68l-2.32-8.51a1.56,1.56,0,0,0-1-1.2,1.47,1.47,0,0,0-1.5.18l-1.52,1.14c-1.47,1.23-3.27,2.77-6.42,2.77-10.22,0-14-11.18-14.16-20.78-.2-11.25,4.36-22.78,13.43-23,2.79-.06,4.16,1.42,5.36,2.72L500,59.22a1.55,1.55,0,0,0,1.49.38,1.69,1.69,0,0,0,1.16-1.08l3.53-8.6a1.69,1.69,0,0,0-.78-2.08l-.95-.54a20.68,20.68,0,0,0-10.78-3.23c-10.32-.17-19.33,3-25.36,8.91-6.24,6.14-9.31,15-9.12,26.3.32,19.14,11,29.53,31,30,4.92.13,13.28-1.12,16-2.76A1.6,1.6,0,0,0,506.87,104.68Z"/><path class="cls-1" d="M401.82,40.91a1.73,1.73,0,0,0-1.62-1.57c-7.94-.47-13.55,4.38-16.68,8.41-.12-3.12-.25-6.31-.25-6.31a1.73,1.73,0,0,0-.68-1.29,1.86,1.86,0,0,0-1.48-.25L362.88,44.8a1.64,1.64,0,0,0-1.21,1.87l9.71,60.18a1.76,1.76,0,0,0,1.94,1.4l9-1.18a1.68,1.68,0,0,0,1.46-1.57l1.4-22.92c.64-13,7-18.83,12.63-18.74h.34a14.16,14.16,0,0,1,2.69,0,1.79,1.79,0,0,0,1.5-.34,1.62,1.62,0,0,0,.65-1.36Z"/><path class="cls-1" d="M457,78.26l.4-4.61c.32-3.41.67-6.95.6-8.62-.17-7.59-3.08-14.52-7.86-19A21.08,21.08,0,0,0,435,40.43c-8.94.2-16.66,3.47-22.37,9.33-6.45,6.68-9.87,16.23-9.58,26.91C403.62,97.39,421,108.34,437,108.1c13.11-.17,19.53-5.93,19.8-6.17a1.67,1.67,0,0,0,.45-1.74l-2.62-8.11A1.71,1.71,0,0,0,453.38,91a1.68,1.68,0,0,0-1.64.51s-4.46,4.7-9.84,4.6c-10.73-.2-15.48-5.55-16.21-18.11l29.55,1.86A1.73,1.73,0,0,0,457,78.26ZM426.22,67.62c.08-5.83,1.35-10.32,3.62-12.71a6.5,6.5,0,0,1,4.71-2A4.58,4.58,0,0,1,437.93,54c2.22,2.1,2.82,7.36,3,12.61Z"/><path class="cls-1" d="M337.61,17.64,320.39,14.2a1.87,1.87,0,0,0-1.44.36,1.74,1.74,0,0,0-.61,1.3V46.24A12,12,0,0,0,315,44.8a24.44,24.44,0,0,0-6.37-.9c-8,0-14.15,2.77-18.3,8.27-4,5.33-6.08,12.79-6.08,22.18v6.24c0,10.4,1.86,17.55,5.78,21.83a19,19,0,0,0,14.62,6.49,18.81,18.81,0,0,0,9.65-2.31,20.22,20.22,0,0,0,4.44-3.82c.1,1.81.18,3.67.18,3.67a1.67,1.67,0,0,0,1.68,1.59H335a1.73,1.73,0,0,0,1.73-1.64L339,19.32A1.69,1.69,0,0,0,337.61,17.64ZM303.16,74.85c0-5.71.79-10,2.49-13.09,1.46-2.64,3.24-5.14,6.22-5.69a6.2,6.2,0,0,1,4,.79l.45.23a3.52,3.52,0,0,1,2,2.75c.77,3,1.13,8.39,1.13,13.7s-.36,10.5-1.13,13.29c-.51,1.8-2,4.91-3.22,5.83a8.1,8.1,0,0,1-4.79,1.57,5.5,5.5,0,0,1-5.31-2.94c-1.3-2.24-1.93-6.38-1.93-12.25Z"/><path class="cls-1" d="M358.95,46.24a1.67,1.67,0,0,0-1.69-1.62h-12.8a1.71,1.71,0,0,0-1.7,1.62l-2.14,60.05a1.74,1.74,0,0,0,.48,1.23,1.77,1.77,0,0,0,1.23.51h17.07a1.82,1.82,0,0,0,1.24-.51,1.61,1.61,0,0,0,.46-1.23Z"/><path class="cls-1" d="M543.88,105l-1.57-12.83a1.76,1.76,0,0,0-.66-1.16,1.91,1.91,0,0,0-1.33-.31,24.7,24.7,0,0,1-3.11,0l-1.24,0h-.15q-3-.07-3.94-.9c-.66-.6-.67-1.63-.56-4.7v-.14s.16-24.63.19-27.71l9.93.41a1.73,1.73,0,0,0,1.29-.51,1.47,1.47,0,0,0,.48-1.09v-.19l-.63-9.92a1.67,1.67,0,0,0-1.7-1.57s-7.59,0-10.06,0c-.08-2.7-.3-15.53-.3-15.53a1.62,1.62,0,0,0-.62-1.26,1.83,1.83,0,0,0-1.39-.37l-10.18,1.75a1.7,1.7,0,0,0-1.42,1.5s-1,11.63-1.21,13.79l-6.57,1a1.71,1.71,0,0,0-1.44,1.62l-.32,7.52A1.71,1.71,0,0,0,509,56.12s2.68.12,4.48.17c-.15,3-1.19,28.87-1.19,28.87-.3,7.13,1,12.78,3.82,16.79a15.36,15.36,0,0,0,12.49,6.6,44.22,44.22,0,0,0,6.94-.29,27.26,27.26,0,0,0,7.3-1.56A1.7,1.7,0,0,0,543.88,105Z"/><path class="cls-1" d="M203.24,52.35c5.87,1.26,12.5,6.39,12.56,6.44a1.74,1.74,0,0,0,2.3-.15l7.45-7.46a1.72,1.72,0,0,0,.2-2.12c-.3-.4-7.3-10.25-23.37-10.25-11.79,0-20.7,9.2-20.7,21.44,0,12.76,9.81,17.94,17,21.73,4.34,2.31,8.08,4.29,8.08,7a2.16,2.16,0,0,1-2.3,2.47c-3.24.14-10.1-2.81-17.47-9.63a1.74,1.74,0,0,0-1.67-.37,1.7,1.7,0,0,0-1.18,1.23L179.87,101a1.65,1.65,0,0,0,.81,1.8c6.76,3.84,15.19,5.2,20.82,5.2a22.42,22.42,0,0,0,22-22.8c0-11.6-8.67-17.37-15.64-22-4.27-2.83-7.93-5.28-8.29-8.17a2.48,2.48,0,0,1,.83-2.18A3,3,0,0,1,203.24,52.35Z"/><path class="cls-1" d="M93.46,4.85l-.15-.1A40,40,0,0,0,72.78.06C56.89,1,48.27,11.5,48.27,29.82c0,1.22,0,2.49.13,3.82,0,0,.11,2.08.21,3.69-2.29,0-7.32.15-7.32.15a1.83,1.83,0,0,0-1.25.57,1.72,1.72,0,0,0-.42,1.11.67.67,0,0,0,0,.19l1.28,10.46a1.6,1.6,0,0,0,.7,1.16,1.72,1.72,0,0,0,1.36.29l7.55-1.63c.79,3,15.43,58.65,15.43,58.65a1.69,1.69,0,0,0,.83,1.05,1.74,1.74,0,0,0,1.34.13l9.46-2.95a1.71,1.71,0,0,0,1.2-1.59.31.31,0,0,0,0-.13S73.82,48,73.57,45.35c2.17-.55,10.48-2.73,10.48-2.73A1.7,1.7,0,0,0,85.33,41a.94.94,0,0,0,0-.2l-.92-7.12a1.68,1.68,0,0,0-2-1.43l-9.93,2c0-.75,0-1.57,0-1.57.07-10.23,4.39-17.06,11-17.45,1.25-.07,3.34,1.2,4.86,2.11l1.94,1.1a1.69,1.69,0,0,0,1.54,0,1.63,1.63,0,0,0,.91-1.32L94.36,6.56A1.66,1.66,0,0,0,93.46,4.85Z"/><path class="cls-1" d="M122.09,40.91a1.66,1.66,0,0,0-1.59-1.57c-8-.47-13.55,4.38-16.67,8.41-.15-3.12-.27-6.31-.27-6.31a1.72,1.72,0,0,0-.69-1.29,1.83,1.83,0,0,0-1.47-.25L83.18,44.8a1.64,1.64,0,0,0-1.23,1.87l9.73,60.18a1.74,1.74,0,0,0,1.91,1.4l9-1.18a1.7,1.7,0,0,0,1.46-1.57l1.38-22.92c.65-13,7-18.83,12.65-18.74h.32a14.06,14.06,0,0,1,2.68,0,1.88,1.88,0,0,0,1.55-.34,1.65,1.65,0,0,0,.63-1.36Z"/><path class="cls-1" d="M177.35,78.26l.39-4.61c.31-3.41.65-6.95.61-8.62-.2-7.59-3.06-14.52-7.9-19a20.92,20.92,0,0,0-15.13-5.56c-8.92.2-16.65,3.47-22.36,9.33-6.46,6.68-9.87,16.23-9.58,26.91.52,20.72,17.89,31.66,34,31.43,13.09-.17,19.52-5.93,19.79-6.17a1.7,1.7,0,0,0,.45-1.74l-2.63-8.11A1.7,1.7,0,0,0,173.66,91a1.62,1.62,0,0,0-1.61.51s-4.48,4.7-9.87,4.6C151.47,95.87,146.71,90.52,146,78l29.56,1.86A1.75,1.75,0,0,0,177.35,78.26ZM146.48,67.62c.11-5.83,1.36-10.32,3.66-12.71a6.45,6.45,0,0,1,4.67-2,4.56,4.56,0,0,1,3.4,1.11c2.23,2.1,2.85,7.36,3.05,12.61Z"/><path class="cls-1" d="M275.41,47.34c-3.73-3.81-8.78-6.18-13.2-6.18a18.23,18.23,0,0,0-13.52,5.56C249,39.82,250.22,16,250.22,16V16a1.64,1.64,0,0,0-.62-1.28,1.69,1.69,0,0,0-1.47-.37L227.24,19a1.67,1.67,0,0,0-1.31,1.76l6.44,85.43a1.7,1.7,0,0,0,1.74,1.56l11.85-.29a1.69,1.69,0,0,0,1.65-1.59l1.87-40.24c.25-6.48,4.38-13.41,10.12-13.41a5.37,5.37,0,0,1,4.1,1.5c2.68,2.84,2.18,9.28,1.87,13.11l-3,39.4a1.73,1.73,0,0,0,.55,1.38,1.79,1.79,0,0,0,1.45.41l14.18-2.54a1.7,1.7,0,0,0,1.37-1.6L282,65.17A23.8,23.8,0,0,0,275.41,47.34Z"/><path class="cls-1" d="M345.37,40.63S341,32.2,353.31,28.74s14.94-4.92,15.36-7.09S374.19,48.12,345.37,40.63Z"/><path class="cls-1" d="M54.71,92.17S63.23,73,35.62,67,2.09,58,.9,53.3-7.79,112.37,54.71,92.17Z"/></g></g></svg>